<?xml version="1.0" encoding="UTF-8"?>
<svg id="BW" xmlns="http://www.w3.org/2000/svg" viewBox="0 0 500 500">
  <defs>
    <style>
      .cls-1 {
        stroke: #000;
        stroke-miterlimit: 10;
        stroke-width: .65px;
      }
    </style>
  </defs>
  <path id="Text_Cursor_T" class="cls-1" d="M236.838772258,261.5952950158h-34.7858983173c-6.4039046852,0-11.5953135935-5.1913876766-11.5953135934-11.5952923619,0-6.4039046853,5.1914089082-11.5952923619,11.5953135934-11.5952923619h34.7858983173V87.6658034294c0-19.2117352874-15.5741842614-34.7858983173-34.7858983172-34.7858983173H53.6330340431c-6.4039046853,0-11.5952923619-5.1913876766-11.5952923619-11.5952711302,0-6.4039259169,5.1913876766-11.5953135935,11.5952923619-11.5953135935h148.4198398976c18.9652573251,0,35.8036151446,9.1062874512,46.3811906792,23.1849371109,10.5775755345-14.0786496596,27.4159333541-23.1849371109,46.3811906792-23.1849371109h151.5516894262c6.4039259169,0,11.5953135935,5.1913876766,11.5953135935,11.5953135935,0,6.4038834537-5.1913876766,11.5952711302-11.5953135935,11.5952711302h-151.5516894262c-19.2117140559,0-34.7858983173,15.5741630298-34.7858983173,34.7858983173v150.7389068627h34.7858983173c6.4039046853,0,11.5952923619,5.1913876766,11.5952923619,11.5952923619s-5.1913876766,11.5952923619-11.5952923619,11.5952923619h-34.7858983173v150.738885631c0,19.2117087479,15.5741842614,34.7858983173,34.7858983173,34.7858983173h2.3190457334c6.4039259169,0,11.5953135936,5.1913982925,11.5953135935,11.5953029777,0,6.4038993774-5.1913876766,11.5952976698-11.5953135935,11.5952976698h-2.3190457334c-18.9652573251,0-35.8036151447-9.1062874512-46.3811906792-23.1849371109-10.5775755345,14.0786496596-27.4159333541,23.1849371109-46.3811906792,23.1849371109h-2.319066965c-6.4039046853,0-11.5952923619-5.1913982924-11.5952923619-11.5952976698,0-6.4039046853,5.1913876766-11.5953029777,11.5952923619-11.5953029777h2.319066965c19.2117140559,0,34.7858983173-15.5741895694,34.7858983173-34.7858983173v-150.738885631Z"/>
</svg>